<svg width="218" height="53" viewBox="0 0 218 53" fill="none" xmlns="http://www.w3.org/2000/svg">
<path d="M71.7178 41.2129V14.6129H82.3958C85.1571 14.6129 87.2598 15.2589 88.7038 16.5509C90.1731 17.8176 90.9078 19.4516 90.9078 21.4529C90.9078 23.1249 90.4518 24.4676 89.5398 25.4809C88.6531 26.4689 87.5638 27.1402 86.2718 27.4949C87.7918 27.7989 89.0458 28.5589 90.0338 29.7749C91.0218 30.9656 91.5158 32.3589 91.5158 33.9549C91.5158 36.0576 90.7558 37.7929 89.2358 39.1609C87.7158 40.5289 85.5625 41.2129 82.7758 41.2129H71.7178ZM76.5818 25.7849H81.6738C83.0418 25.7849 84.0931 25.4682 84.8278 24.8349C85.5625 24.2016 85.9298 23.3022 85.9298 22.1369C85.9298 21.0222 85.5625 20.1482 84.8278 19.5149C84.1185 18.8562 83.0418 18.5269 81.5978 18.5269H76.5818V25.7849ZM76.5818 37.2609H82.0158C83.4598 37.2609 84.5745 36.9316 85.3598 36.2729C86.1705 35.5889 86.5758 34.6389 86.5758 33.4229C86.5758 32.1816 86.1578 31.2062 85.3218 30.4969C84.4858 29.7876 83.3585 29.4329 81.9398 29.4329H76.5818V37.2609ZM104.62 41.6689C102.796 41.6689 101.15 41.2509 99.6804 40.4149C98.2364 39.5789 97.0838 38.4262 96.2224 36.9569C95.3864 35.4622 94.9684 33.7396 94.9684 31.7889C94.9684 29.8382 95.3991 28.1282 96.2604 26.6589C97.1218 25.1642 98.2744 23.9989 99.7184 23.1629C101.188 22.3269 102.834 21.9089 104.658 21.9089C106.457 21.9089 108.078 22.3269 109.522 23.1629C110.992 23.9989 112.144 25.1642 112.98 26.6589C113.842 28.1282 114.272 29.8382 114.272 31.7889C114.272 33.7396 113.842 35.4622 112.98 36.9569C112.144 38.4262 110.992 39.5789 109.522 40.4149C108.053 41.2509 106.419 41.6689 104.62 41.6689ZM104.62 37.4509C105.887 37.4509 106.989 36.9822 107.926 36.0449C108.864 35.0822 109.332 33.6636 109.332 31.7889C109.332 29.9142 108.864 28.5082 107.926 27.5709C106.989 26.6082 105.9 26.1269 104.658 26.1269C103.366 26.1269 102.252 26.6082 101.314 27.5709C100.402 28.5082 99.9464 29.9142 99.9464 31.7889C99.9464 33.6636 100.402 35.0822 101.314 36.0449C102.252 36.9822 103.354 37.4509 104.62 37.4509ZM127.665 41.6689C125.841 41.6689 124.195 41.2509 122.725 40.4149C121.281 39.5789 120.129 38.4262 119.267 36.9569C118.431 35.4622 118.013 33.7396 118.013 31.7889C118.013 29.8382 118.444 28.1282 119.305 26.6589C120.167 25.1642 121.319 23.9989 122.763 23.1629C124.233 22.3269 125.879 21.9089 127.703 21.9089C129.502 21.9089 131.123 22.3269 132.567 23.1629C134.037 23.9989 135.189 25.1642 136.025 26.6589C136.887 28.1282 137.317 29.8382 137.317 31.7889C137.317 33.7396 136.887 35.4622 136.025 36.9569C135.189 38.4262 134.037 39.5789 132.567 40.4149C131.098 41.2509 129.464 41.6689 127.665 41.6689ZM127.665 37.4509C128.932 37.4509 130.034 36.9822 130.971 36.0449C131.909 35.0822 132.377 33.6636 132.377 31.7889C132.377 29.9142 131.909 28.5082 130.971 27.5709C130.034 26.6082 128.945 26.1269 127.703 26.1269C126.411 26.1269 125.297 26.6082 124.359 27.5709C123.447 28.5082 122.991 29.9142 122.991 31.7889C122.991 33.6636 123.447 35.0822 124.359 36.0449C125.297 36.9822 126.399 37.4509 127.665 37.4509ZM141.666 41.2129V13.8529H146.53V30.0029L153.218 22.3649H158.994L151.28 30.9529L160.248 41.2129H154.168L146.53 31.7509V41.2129H141.666ZM170.863 41.6689C168.963 41.6689 167.279 41.2636 165.809 40.4529C164.34 39.6422 163.187 38.5022 162.351 37.0329C161.515 35.5636 161.097 33.8662 161.097 31.9409C161.097 29.9902 161.503 28.2549 162.313 26.7349C163.149 25.2149 164.289 24.0369 165.733 23.2009C167.203 22.3396 168.925 21.9089 170.901 21.9089C172.751 21.9089 174.385 22.3142 175.803 23.1249C177.222 23.9356 178.324 25.0502 179.109 26.4689C179.92 27.8622 180.325 29.4202 180.325 31.1429C180.325 31.4216 180.313 31.7129 180.287 32.0169C180.287 32.3209 180.275 32.6376 180.249 32.9669H165.923C166.025 34.4362 166.531 35.5889 167.443 36.4249C168.381 37.2609 169.508 37.6789 170.825 37.6789C171.813 37.6789 172.637 37.4636 173.295 37.0329C173.979 36.5769 174.486 35.9942 174.815 35.2849H179.755C179.401 36.4756 178.805 37.5649 177.969 38.5529C177.159 39.5156 176.145 40.2756 174.929 40.8329C173.739 41.3902 172.383 41.6689 170.863 41.6689ZM170.901 25.8609C169.711 25.8609 168.659 26.2029 167.747 26.8869C166.835 27.5456 166.253 28.5589 165.999 29.9269H175.385C175.309 28.6856 174.853 27.6976 174.017 26.9629C173.181 26.2282 172.143 25.8609 170.901 25.8609ZM184.416 41.2129V22.3649H188.748L189.204 25.8989C189.888 24.6829 190.813 23.7202 191.978 23.0109C193.169 22.2762 194.562 21.9089 196.158 21.9089V27.0389H194.79C193.726 27.0389 192.776 27.2036 191.94 27.5329C191.104 27.8622 190.446 28.4322 189.964 29.2429C189.508 30.0536 189.28 31.1809 189.28 32.6249V41.2129H184.416ZM207.273 41.6689C205.601 41.6689 204.131 41.4029 202.865 40.8709C201.598 40.3136 200.585 39.5536 199.825 38.5909C199.065 37.6282 198.609 36.5136 198.457 35.2469H203.359C203.511 35.9816 203.916 36.6149 204.575 37.1469C205.259 37.6536 206.133 37.9069 207.197 37.9069C208.261 37.9069 209.033 37.6916 209.515 37.2609C210.021 36.8302 210.275 36.3362 210.275 35.7789C210.275 34.9682 209.92 34.4236 209.211 34.1449C208.501 33.8409 207.513 33.5496 206.247 33.2709C205.436 33.0936 204.613 32.8782 203.777 32.6249C202.941 32.3716 202.168 32.0549 201.459 31.6749C200.775 31.2696 200.217 30.7629 199.787 30.1549C199.356 29.5216 199.141 28.7489 199.141 27.8369C199.141 26.1649 199.799 24.7589 201.117 23.6189C202.459 22.4789 204.334 21.9089 206.741 21.9089C208.97 21.9089 210.743 22.4282 212.061 23.4669C213.403 24.5056 214.201 25.9369 214.455 27.7609H209.857C209.578 26.3676 208.527 25.6709 206.703 25.6709C205.791 25.6709 205.081 25.8482 204.575 26.2029C204.093 26.5576 203.853 27.0009 203.853 27.5329C203.853 28.0902 204.22 28.5336 204.955 28.8629C205.689 29.1922 206.665 29.4962 207.881 29.7749C209.198 30.0789 210.401 30.4209 211.491 30.8009C212.605 31.1556 213.492 31.7002 214.151 32.4349C214.809 33.1442 215.139 34.1702 215.139 35.5129C215.164 36.6782 214.86 37.7296 214.227 38.6669C213.593 39.6042 212.681 40.3389 211.491 40.8709C210.3 41.4029 208.894 41.6689 207.273 41.6689Z" fill="#F2F2F2"/>
<rect x="3" y="13.9449" width="50.134" height="36.3001" rx="8" fill="#F2F2F2" stroke="#F2F2F2" stroke-width="4.5" stroke-miterlimit="10" stroke-linecap="round" stroke-linejoin="round"/>
<path d="M38.2655 13.79V13.1982C38.2655 7.56588 33.6996 3 28.0673 3V3C22.435 3 17.8691 7.56588 17.8691 13.1982V13.79" stroke="#F2F2F2" stroke-width="4.5" stroke-miterlimit="10" stroke-linecap="round" stroke-linejoin="round"/>
<line x1="12.3174" y1="13.9536" x2="12.3174" y2="50.3138" stroke="#F2F2F2" stroke-width="4.5" stroke-miterlimit="10" stroke-linecap="square" stroke-linejoin="round"/>
<line x1="44.3174" y1="13.9473" x2="44.3174" y2="50.3135" stroke="#F2F2F2" stroke-width="4.5" stroke-miterlimit="10" stroke-linecap="square" stroke-linejoin="round"/>
</svg>
