<svg width="111" height="25" viewBox="0 0 111 25" fill="none" xmlns="http://www.w3.org/2000/svg">
<path d="M0.430625 19V1.72H3.83863V19H0.430625ZM2.30263 19V16.024H11.9266V19H2.30263ZM2.30263 11.584V8.728H10.4146V11.584H2.30263ZM2.30263 4.696V1.72H11.6866V4.696H2.30263ZM14.0499 12.4C14.0499 10.88 14.3619 9.616 14.9859 8.608C15.6099 7.6 16.4739 6.848 17.5779 6.352C18.6819 5.84 19.9619 5.584 21.4179 5.584C22.5699 5.584 23.5459 5.736 24.3459 6.04V8.8H24.1059C23.8179 8.656 23.4659 8.536 23.0499 8.44C22.6499 8.344 22.1939 8.296 21.6819 8.296C20.3699 8.296 19.3379 8.648 18.5859 9.352C17.8499 10.04 17.4819 11.056 17.4819 12.4C17.4819 13.744 17.8499 14.768 18.5859 15.472C19.3379 16.16 20.3699 16.504 21.6819 16.504C22.1939 16.504 22.6499 16.456 23.0499 16.36C23.4659 16.264 23.8179 16.144 24.1059 16H24.3459V18.76C23.5459 19.08 22.5699 19.24 21.4179 19.24C19.9139 19.24 18.6099 18.992 17.5059 18.496C16.4179 17.984 15.5699 17.224 14.9619 16.216C14.3539 15.192 14.0499 13.92 14.0499 12.4ZM26.4249 12.4C26.4249 10.912 26.6969 9.664 27.2409 8.656C27.7849 7.632 28.5449 6.864 29.5209 6.352C30.4969 5.84 31.6169 5.584 32.8809 5.584C34.1289 5.584 35.2409 5.84 36.2169 6.352C37.1929 6.864 37.9529 7.632 38.4969 8.656C39.0409 9.664 39.3129 10.912 39.3129 12.4C39.3129 13.904 39.0409 15.16 38.4969 16.168C37.9529 17.176 37.1929 17.944 36.2169 18.472C35.2409 18.984 34.1289 19.24 32.8809 19.24C31.6009 19.24 30.4729 18.984 29.4969 18.472C28.5369 17.944 27.7849 17.176 27.2409 16.168C26.6969 15.16 26.4249 13.904 26.4249 12.4ZM29.8569 12.4C29.8569 13.808 30.1129 14.872 30.6249 15.592C31.1369 16.296 31.8889 16.648 32.8809 16.648C33.8569 16.648 34.6009 16.296 35.1129 15.592C35.6249 14.872 35.8809 13.808 35.8809 12.4C35.8809 10.992 35.6249 9.936 35.1129 9.232C34.6009 8.512 33.8569 8.152 32.8809 8.152C31.8889 8.152 31.1369 8.512 30.6249 9.232C30.1129 9.936 29.8569 10.992 29.8569 12.4ZM42.7415 19V1.72H45.0455V16.984H52.4375V19H42.7415ZM54.7402 12.424C54.7402 11 54.9882 9.784 55.4842 8.776C55.9962 7.768 56.7002 7 57.5962 6.472C58.5082 5.928 59.5562 5.656 60.7402 5.656C61.9242 5.656 62.9642 5.928 63.8602 6.472C64.7722 7 65.4762 7.768 65.9722 8.776C66.4842 9.784 66.7402 11 66.7402 12.424C66.7402 13.848 66.4842 15.064 65.9722 16.072C65.4762 17.08 64.7722 17.856 63.8602 18.4C62.9642 18.928 61.9242 19.192 60.7402 19.192C59.5242 19.192 58.4682 18.928 57.5722 18.4C56.6762 17.856 55.9802 17.08 55.4842 16.072C54.9882 15.064 54.7402 13.848 54.7402 12.424ZM56.9962 12.424C56.9962 14.024 57.3162 15.232 57.9562 16.048C58.6122 16.864 59.5402 17.272 60.7402 17.272C61.9402 17.272 62.8602 16.864 63.5002 16.048C64.1562 15.232 64.4842 14.024 64.4842 12.424C64.4842 10.808 64.1562 9.6 63.5002 8.8C62.8602 7.984 61.9402 7.576 60.7402 7.576C59.5402 7.576 58.6122 7.984 57.9562 8.8C57.3162 9.6 56.9962 10.808 56.9962 12.424ZM76.0383 19.288C74.5983 19.288 73.3743 19.016 72.3663 18.472C71.3743 17.912 70.6143 17.12 70.0863 16.096C69.5743 15.072 69.3183 13.848 69.3183 12.424C69.3183 11 69.6063 9.784 70.1823 8.776C70.7583 7.768 71.5663 7 72.6063 6.472C73.6463 5.928 74.8543 5.656 76.2303 5.656C76.7903 5.656 77.2863 5.696 77.7183 5.776C78.1663 5.856 78.5263 5.96 78.7983 6.088L78.7023 8.008C78.5263 7.928 78.2383 7.84 77.8383 7.744C77.4543 7.632 76.9663 7.576 76.3743 7.576C74.8223 7.576 73.6303 7.992 72.7983 8.824C71.9823 9.656 71.5743 10.856 71.5743 12.424C71.5743 13.56 71.7503 14.496 72.1023 15.232C72.4703 15.952 72.9983 16.488 73.6863 16.84C74.3743 17.192 75.2223 17.368 76.2303 17.368C76.7903 17.368 77.2943 17.32 77.7423 17.224C78.2063 17.112 78.6143 16.976 78.9663 16.816L78.5823 17.488C78.5183 17.216 78.4703 16.896 78.4383 16.528C78.4063 16.144 78.3903 15.752 78.3903 15.352V4.888C78.3903 4.568 78.3823 4.152 78.3663 3.64C78.3663 3.128 78.3503 2.624 78.3183 2.128C78.3023 1.632 78.2623 1.24 78.1983 0.951999L78.2463 0.759999H80.5983V14.2C80.5983 14.52 80.5983 14.936 80.5983 15.448C80.6143 15.96 80.6303 16.464 80.6463 16.96C80.6783 17.456 80.7263 17.848 80.7903 18.136L80.7423 18.328C80.0703 18.584 79.3423 18.808 78.5583 19C77.7903 19.192 76.9503 19.288 76.0383 19.288ZM88.9543 24.76C88.3783 24.76 87.7463 24.704 87.0583 24.592C86.3703 24.496 85.7863 24.344 85.3063 24.136V22.168H85.4983C86.0263 22.408 86.6023 22.576 87.2263 22.672C87.8663 22.784 88.4423 22.84 88.9543 22.84C89.9943 22.84 90.8263 22.688 91.4503 22.384C92.0743 22.08 92.5223 21.616 92.7943 20.992C93.0823 20.368 93.2263 19.576 93.2263 18.616V9.4C93.2263 9.016 93.2343 8.656 93.2503 8.32C93.2823 7.984 93.3223 7.664 93.3703 7.36L93.7783 8.032C93.4263 7.92 93.0263 7.816 92.5783 7.72C92.1463 7.624 91.6743 7.576 91.1623 7.576C90.1063 7.576 89.2263 7.76 88.5223 8.128C87.8183 8.48 87.2903 9.016 86.9383 9.736C86.5863 10.44 86.4103 11.32 86.4103 12.376C86.4103 13.912 86.8023 15.064 87.5863 15.832C88.3863 16.6 89.5783 16.984 91.1623 16.984C91.6103 16.984 92.0343 16.952 92.4343 16.888C92.8343 16.824 93.2743 16.696 93.7543 16.504L93.7063 18.52C93.1623 18.648 92.6823 18.744 92.2663 18.808C91.8503 18.872 91.4503 18.904 91.0663 18.904C89.6903 18.904 88.4823 18.664 87.4423 18.184C86.4023 17.688 85.5943 16.96 85.0183 16C84.4423 15.024 84.1543 13.816 84.1543 12.376C84.1543 11.336 84.3063 10.408 84.6103 9.592C84.9303 8.76 85.3943 8.056 86.0023 7.48C86.6103 6.888 87.3463 6.44 88.2103 6.136C89.0743 5.816 90.0583 5.656 91.1623 5.656C91.8823 5.656 92.6423 5.744 93.4423 5.92C94.2423 6.08 94.9543 6.28 95.5782 6.52L95.6263 6.712C95.5623 7 95.5143 7.392 95.4823 7.888C95.4663 8.384 95.4503 8.888 95.4343 9.4C95.4343 9.912 95.4343 10.328 95.4343 10.648V18.616C95.4343 19.896 95.1783 20.992 94.6663 21.904C94.1703 22.832 93.4343 23.536 92.4583 24.016C91.4983 24.512 90.3303 24.76 88.9543 24.76ZM100.91 24.568V24.28L103.886 16.984L108.11 5.944H110.318V6.232L103.022 24.568H100.91ZM103.31 19.48L98.0302 6.232V5.944H100.334L104.582 17.032L103.31 19.48Z" fill="#F2F2F2"/>
</svg>
