<svg width="218" height="50" viewBox="0 0 218 50" fill="none" xmlns="http://www.w3.org/2000/svg">
<path d="M62.7363 37.7246V11.1246H80.1023V15.0386H67.6003V22.3346H78.9623V26.1346H67.6003V33.8106H80.1023V37.7246H62.7363ZM93.8251 38.1806C91.8998 38.1806 90.2024 37.7626 88.7331 36.9266C87.2638 36.0906 86.0984 34.9253 85.2371 33.4306C84.4011 31.9359 83.9831 30.2259 83.9831 28.3006C83.9831 26.3753 84.4011 24.6653 85.2371 23.1706C86.0984 21.6759 87.2638 20.5106 88.7331 19.6746C90.2024 18.8386 91.8998 18.4206 93.8251 18.4206C96.2318 18.4206 98.2584 19.0539 99.9051 20.3206C101.552 21.5619 102.603 23.2846 103.059 25.4886H97.9291C97.6758 24.5766 97.1691 23.8673 96.4091 23.3606C95.6744 22.8286 94.8004 22.5626 93.7871 22.5626C92.4444 22.5626 91.3044 23.0693 90.3671 24.0826C89.4298 25.0959 88.9611 26.5019 88.9611 28.3006C88.9611 30.0993 89.4298 31.5053 90.3671 32.5186C91.3044 33.5319 92.4444 34.0386 93.7871 34.0386C94.8004 34.0386 95.6744 33.7853 96.4091 33.2786C97.1691 32.7719 97.6758 32.0499 97.9291 31.1126H103.059C102.603 33.2406 101.552 34.9506 99.9051 36.2426C98.2584 37.5346 96.2318 38.1806 93.8251 38.1806ZM116.42 38.1806C114.596 38.1806 112.95 37.7626 111.48 36.9266C110.036 36.0906 108.884 34.9379 108.022 33.4686C107.186 31.9739 106.768 30.2513 106.768 28.3006C106.768 26.3499 107.199 24.6399 108.06 23.1706C108.922 21.6759 110.074 20.5106 111.518 19.6746C112.988 18.8386 114.634 18.4206 116.458 18.4206C118.257 18.4206 119.878 18.8386 121.322 19.6746C122.792 20.5106 123.944 21.6759 124.78 23.1706C125.642 24.6399 126.072 26.3499 126.072 28.3006C126.072 30.2513 125.642 31.9739 124.78 33.4686C123.944 34.9379 122.792 36.0906 121.322 36.9266C119.853 37.7626 118.219 38.1806 116.42 38.1806ZM116.42 33.9626C117.687 33.9626 118.789 33.4939 119.726 32.5566C120.664 31.5939 121.132 30.1753 121.132 28.3006C121.132 26.4259 120.664 25.0199 119.726 24.0826C118.789 23.1199 117.7 22.6386 116.458 22.6386C115.166 22.6386 114.052 23.1199 113.114 24.0826C112.202 25.0199 111.746 26.4259 111.746 28.3006C111.746 30.1753 112.202 31.5939 113.114 32.5566C114.052 33.4939 115.154 33.9626 116.42 33.9626ZM130.421 37.7246V10.3646H135.285V37.7246H130.421ZM142.877 15.9506C141.99 15.9506 141.256 15.6846 140.673 15.1526C140.116 14.6206 139.837 13.9493 139.837 13.1386C139.837 12.3279 140.116 11.6693 140.673 11.1626C141.256 10.6306 141.99 10.3646 142.877 10.3646C143.764 10.3646 144.486 10.6306 145.043 11.1626C145.626 11.6693 145.917 12.3279 145.917 13.1386C145.917 13.9493 145.626 14.6206 145.043 15.1526C144.486 15.6846 143.764 15.9506 142.877 15.9506ZM140.445 37.7246V18.8766H145.309V37.7246H140.445ZM159.05 38.1806C157.277 38.1806 155.693 37.7499 154.3 36.8886C152.907 36.0273 151.805 34.8493 150.994 33.3546C150.183 31.8599 149.778 30.1626 149.778 28.2626C149.778 26.3626 150.183 24.6779 150.994 23.2086C151.805 21.7139 152.907 20.5486 154.3 19.7126C155.693 18.8513 157.277 18.4206 159.05 18.4206C160.469 18.4206 161.71 18.6866 162.774 19.2186C163.838 19.7506 164.699 20.4979 165.358 21.4606V10.3646H170.222V37.7246H165.89L165.358 35.0266C164.75 35.8626 163.939 36.5973 162.926 37.2306C161.938 37.8639 160.646 38.1806 159.05 38.1806ZM160.076 33.9246C161.647 33.9246 162.926 33.4053 163.914 32.3666C164.927 31.3026 165.434 29.9473 165.434 28.3006C165.434 26.6539 164.927 25.3113 163.914 24.2726C162.926 23.2086 161.647 22.6766 160.076 22.6766C158.531 22.6766 157.251 23.1959 156.238 24.2346C155.225 25.2733 154.718 26.6159 154.718 28.2626C154.718 29.9093 155.225 31.2646 156.238 32.3286C157.251 33.3926 158.531 33.9246 160.076 33.9246ZM181.673 38.1806C180.052 38.1806 178.722 37.9273 177.683 37.4206C176.644 36.8886 175.872 36.1919 175.365 35.3306C174.858 34.4693 174.605 33.5193 174.605 32.4806C174.605 30.7326 175.289 29.3139 176.657 28.2246C178.025 27.1353 180.077 26.5906 182.813 26.5906H187.601V26.1346C187.601 24.8426 187.234 23.8926 186.499 23.2846C185.764 22.6766 184.852 22.3726 183.763 22.3726C182.775 22.3726 181.914 22.6133 181.179 23.0946C180.444 23.5506 179.988 24.2346 179.811 25.1466H175.061C175.188 23.7786 175.644 22.5879 176.429 21.5746C177.24 20.5613 178.278 19.7886 179.545 19.2566C180.812 18.6993 182.23 18.4206 183.801 18.4206C186.486 18.4206 188.602 19.0919 190.147 20.4346C191.692 21.7773 192.465 23.6773 192.465 26.1346V37.7246H188.323L187.867 34.6846C187.31 35.6979 186.524 36.5339 185.511 37.1926C184.523 37.8513 183.244 38.1806 181.673 38.1806ZM182.775 34.3806C184.168 34.3806 185.245 33.9246 186.005 33.0126C186.79 32.1006 187.284 30.9733 187.487 29.6306H183.345C182.053 29.6306 181.128 29.8713 180.571 30.3526C180.014 30.8086 179.735 31.3786 179.735 32.0626C179.735 32.7973 180.014 33.3673 180.571 33.7726C181.128 34.1779 181.863 34.3806 182.775 34.3806ZM198.832 46.0846L203.202 36.4706H202.062L194.728 18.8766H200.01L205.292 32.1386L210.802 18.8766H215.97L204 46.0846H198.832Z" fill="#F2F2F2"/>
<path d="M0 20.679C0 9.25828 9.25829 0 20.679 0V28.5654C20.679 39.9861 11.4207 49.2444 0 49.2444V20.679Z" fill="#F2F2F2"/>
<path d="M23.6787 11.2368C23.6787 5.03088 28.7096 0 34.9155 0C41.1214 0 46.1523 5.03087 46.1523 11.2368V11.8855C46.1523 18.0914 41.1214 23.1223 34.9155 23.1223C28.7096 23.1223 23.6787 18.0914 23.6787 11.8855V11.2368Z" fill="#F2F2F2"/>
<path d="M23.6787 37.3588C23.6787 31.1529 28.7096 26.1221 34.9155 26.1221C41.1214 26.1221 46.1523 31.1529 46.1523 37.3588V38.0076C46.1523 44.2135 41.1214 49.2444 34.9155 49.2444C28.7096 49.2444 23.6787 44.2135 23.6787 38.0076V37.3588Z" fill="#F2F2F2"/>
</svg>
