<svg width="262" height="44" viewBox="0 0 262 44" fill="none" xmlns="http://www.w3.org/2000/svg">
<path d="M59.5567 33.0757V6.47568H64.4207V29.2757H76.2007V33.0757H59.5567ZM88.6768 33.5317C86.7768 33.5317 85.0922 33.1264 83.6228 32.3157C82.1535 31.505 81.0008 30.365 80.1648 28.8957C79.3288 27.4263 78.9108 25.729 78.9108 23.8037C78.9108 21.853 79.3162 20.1177 80.1268 18.5977C80.9628 17.0777 82.1028 15.8997 83.5468 15.0637C85.0162 14.2023 86.7388 13.7717 88.7148 13.7717C90.5642 13.7717 92.1982 14.177 93.6168 14.9877C95.0355 15.7983 96.1375 16.913 96.9228 18.3317C97.7335 19.725 98.1388 21.283 98.1388 23.0057C98.1388 23.2843 98.1262 23.5757 98.1008 23.8797C98.1008 24.1837 98.0882 24.5004 98.0628 24.8297H83.7368C83.8382 26.299 84.3448 27.4517 85.2568 28.2877C86.1942 29.1237 87.3215 29.5417 88.6388 29.5417C89.6268 29.5417 90.4502 29.3264 91.1088 28.8957C91.7928 28.4397 92.2995 27.857 92.6288 27.1477H97.5688C97.2142 28.3384 96.6188 29.4277 95.7828 30.4157C94.9722 31.3784 93.9588 32.1384 92.7428 32.6957C91.5522 33.253 90.1968 33.5317 88.6768 33.5317ZM88.7148 17.7237C87.5242 17.7237 86.4728 18.0657 85.5608 18.7497C84.6488 19.4083 84.0662 20.4217 83.8128 21.7897H93.1988C93.1228 20.5483 92.6668 19.5603 91.8308 18.8257C90.9948 18.091 89.9562 17.7237 88.7148 17.7237ZM108.728 33.5317C107.106 33.5317 105.776 33.2784 104.738 32.7717C103.699 32.2397 102.926 31.543 102.42 30.6817C101.913 29.8204 101.66 28.8704 101.66 27.8317C101.66 26.0837 102.344 24.665 103.712 23.5757C105.08 22.4863 107.132 21.9417 109.868 21.9417H114.656V21.4857C114.656 20.1937 114.288 19.2437 113.554 18.6357C112.819 18.0277 111.907 17.7237 110.818 17.7237C109.83 17.7237 108.968 17.9643 108.234 18.4457C107.499 18.9017 107.043 19.5857 106.866 20.4977H102.116C102.242 19.1297 102.698 17.939 103.484 16.9257C104.294 15.9123 105.333 15.1397 106.6 14.6077C107.866 14.0503 109.285 13.7717 110.856 13.7717C113.541 13.7717 115.656 14.443 117.202 15.7857C118.747 17.1283 119.52 19.0283 119.52 21.4857V33.0757H115.378L114.922 30.0357C114.364 31.049 113.579 31.885 112.566 32.5437C111.578 33.2024 110.298 33.5317 108.728 33.5317ZM109.83 29.7317C111.223 29.7317 112.3 29.2757 113.06 28.3637C113.845 27.4517 114.339 26.3243 114.542 24.9817H110.4C109.108 24.9817 108.183 25.2223 107.626 25.7037C107.068 26.1597 106.79 26.7297 106.79 27.4137C106.79 28.1484 107.068 28.7184 107.626 29.1237C108.183 29.529 108.918 29.7317 109.83 29.7317ZM125.035 33.0757V18.2937H122.451V14.2277H125.035V12.0237C125.035 9.74368 125.605 8.12235 126.745 7.15968C127.911 6.19702 129.481 5.71568 131.457 5.71568H133.547V9.85768H132.217C131.381 9.85768 130.786 10.0223 130.431 10.3517C130.077 10.681 129.899 11.2383 129.899 12.0237V14.2277H133.965V18.2937H129.899V33.0757H125.035ZM146.986 33.0757V6.47568H151.85V17.5337H163.782V6.47568H168.646V33.0757H163.782V21.4857H151.85V33.0757H146.986ZM182.746 33.5317C180.922 33.5317 179.276 33.1137 177.806 32.2777C176.362 31.4417 175.21 30.289 174.348 28.8197C173.512 27.325 173.094 25.6024 173.094 23.6517C173.094 21.701 173.525 19.991 174.386 18.5217C175.248 17.027 176.4 15.8617 177.844 15.0257C179.314 14.1897 180.96 13.7717 182.784 13.7717C184.583 13.7717 186.204 14.1897 187.648 15.0257C189.118 15.8617 190.27 17.027 191.106 18.5217C191.968 19.991 192.398 21.701 192.398 23.6517C192.398 25.6024 191.968 27.325 191.106 28.8197C190.27 30.289 189.118 31.4417 187.648 32.2777C186.179 33.1137 184.545 33.5317 182.746 33.5317ZM182.746 29.3137C184.013 29.3137 185.115 28.845 186.052 27.9077C186.99 26.945 187.458 25.5263 187.458 23.6517C187.458 21.777 186.99 20.371 186.052 19.4337C185.115 18.471 184.026 17.9897 182.784 17.9897C181.492 17.9897 180.378 18.471 179.44 19.4337C178.528 20.371 178.072 21.777 178.072 23.6517C178.072 25.5263 178.528 26.945 179.44 27.9077C180.378 28.845 181.48 29.3137 182.746 29.3137ZM204.403 33.0757C202.427 33.0757 200.844 32.5944 199.653 31.6317C198.462 30.669 197.867 28.959 197.867 26.5017V18.2937H194.637V14.2277H197.867L198.437 9.17368H202.731V14.2277H207.823V18.2937H202.731V26.5397C202.731 27.4517 202.921 28.085 203.301 28.4397C203.706 28.769 204.39 28.9337 205.353 28.9337H207.709V33.0757H204.403ZM220.675 33.5317C218.775 33.5317 217.09 33.1264 215.621 32.3157C214.152 31.505 212.999 30.365 212.163 28.8957C211.327 27.4263 210.909 25.729 210.909 23.8037C210.909 21.853 211.314 20.1177 212.125 18.5977C212.961 17.0777 214.101 15.8997 215.545 15.0637C217.014 14.2023 218.737 13.7717 220.713 13.7717C222.562 13.7717 224.196 14.177 225.615 14.9877C227.034 15.7983 228.136 16.913 228.921 18.3317C229.732 19.725 230.137 21.283 230.137 23.0057C230.137 23.2843 230.124 23.5757 230.099 23.8797C230.099 24.1837 230.086 24.5004 230.061 24.8297H215.735C215.836 26.299 216.343 27.4517 217.255 28.2877C218.192 29.1237 219.32 29.5417 220.637 29.5417C221.625 29.5417 222.448 29.3264 223.107 28.8957C223.791 28.4397 224.298 27.857 224.627 27.1477H229.567C229.212 28.3384 228.617 29.4277 227.781 30.4157C226.97 31.3784 225.957 32.1384 224.741 32.6957C223.55 33.253 222.195 33.5317 220.675 33.5317ZM220.713 17.7237C219.522 17.7237 218.471 18.0657 217.559 18.7497C216.647 19.4083 216.064 20.4217 215.811 21.7897H225.197C225.121 20.5483 224.665 19.5603 223.829 18.8257C222.993 18.091 221.954 17.7237 220.713 17.7237ZM234.228 33.0757V5.71568H239.092V33.0757H234.228ZM251.852 33.5317C250.18 33.5317 248.71 33.2657 247.444 32.7337C246.177 32.1764 245.164 31.4164 244.404 30.4537C243.644 29.491 243.188 28.3763 243.036 27.1097H247.938C248.09 27.8444 248.495 28.4777 249.154 29.0097C249.838 29.5164 250.712 29.7697 251.776 29.7697C252.84 29.7697 253.612 29.5544 254.094 29.1237C254.6 28.693 254.854 28.199 254.854 27.6417C254.854 26.831 254.499 26.2863 253.79 26.0077C253.08 25.7037 252.092 25.4123 250.826 25.1337C250.015 24.9564 249.192 24.741 248.356 24.4877C247.52 24.2343 246.747 23.9177 246.038 23.5377C245.354 23.1323 244.796 22.6257 244.366 22.0177C243.935 21.3843 243.72 20.6117 243.72 19.6997C243.72 18.0277 244.378 16.6217 245.696 15.4817C247.038 14.3417 248.913 13.7717 251.32 13.7717C253.549 13.7717 255.322 14.291 256.64 15.3297C257.982 16.3683 258.78 17.7997 259.034 19.6237H254.436C254.157 18.2303 253.106 17.5337 251.282 17.5337C250.37 17.5337 249.66 17.711 249.154 18.0657C248.672 18.4203 248.432 18.8637 248.432 19.3957C248.432 19.953 248.799 20.3963 249.534 20.7257C250.268 21.055 251.244 21.359 252.46 21.6377C253.777 21.9417 254.98 22.2837 256.07 22.6637C257.184 23.0183 258.071 23.563 258.73 24.2977C259.388 25.007 259.718 26.033 259.718 27.3757C259.743 28.541 259.439 29.5924 258.806 30.5297C258.172 31.467 257.26 32.2017 256.07 32.7337C254.879 33.2657 253.473 33.5317 251.852 33.5317Z" fill="#F2F2F2"/>
<path d="M2.30611 43.9246C1.37562 43.9246 0.531692 43.362 0.176807 42.5007C-0.182406 41.6395 0.0166757 40.6441 0.674511 39.9862L13.2253 27.4354C14.1298 26.5352 15.5883 26.5352 16.4885 27.4354C17.393 28.3356 17.393 29.7984 16.4885 30.6986L3.93772 43.2494C3.50926 43.6822 2.92067 43.9246 2.30611 43.9246Z" fill="#F2F2F2"/>
<path d="M39.2566 1.35145L6.43838 34.1653C-0.416959 27.31 -0.416959 16.1917 6.43838 9.33203C16.1934 -0.422971 39.2566 1.35145 39.2566 1.35145Z" fill="#F2F2F2"/>
<path d="M31.2717 34.1649C24.4164 41.0246 13.2981 41.0246 6.43848 34.1649L39.2567 1.35107C39.2567 1.35107 41.0311 24.4099 31.2717 34.1649Z" fill="#F2F2F2"/>
</svg>
