<svg width="243" height="57" viewBox="0 0 243 57" fill="none" xmlns="http://www.w3.org/2000/svg">
<path d="M0 17.1894C0 16.486 0.373312 15.8354 0.980614 15.4805L24.4903 1.74052C25.8098 0.96933 27.4684 1.92105 27.4684 3.44944V24.154L13.88 16.0536V56.2583H1.97937C0.886194 56.2583 0 55.3721 0 54.2789V17.1894Z" fill="#F2F2F2"/>
<path d="M27.4688 24.1792L40.2824 32.0413C40.869 32.4013 41.2266 33.0401 41.2266 33.7284V54.279C41.2266 55.3722 40.3404 56.2584 39.2472 56.2584H29.4481C28.3549 56.2584 27.4688 55.3722 27.4688 54.279V24.1792Z" fill="#F2F2F2"/>
<path d="M60.8106 46.0371V19.4371H65.6746L78.1766 38.1711V19.4371H83.0406V46.0371H78.1766L65.6746 27.3411V46.0371H60.8106ZM94.5813 46.4931C92.9599 46.4931 91.6299 46.2398 90.5913 45.7331C89.5526 45.2011 88.7799 44.5044 88.2733 43.6431C87.7666 42.7818 87.5133 41.8318 87.5133 40.7931C87.5133 39.0451 88.1973 37.6264 89.5653 36.5371C90.9333 35.4478 92.9853 34.9031 95.7213 34.9031H100.509V34.4471C100.509 33.1551 100.142 32.2051 99.4073 31.5971C98.6726 30.9891 97.7606 30.6851 96.6713 30.6851C95.6833 30.6851 94.8219 30.9258 94.0873 31.4071C93.3526 31.8631 92.8966 32.5471 92.7193 33.4591H87.9693C88.0959 32.0911 88.5519 30.9004 89.3373 29.8871C90.1479 28.8738 91.1866 28.1011 92.4533 27.5691C93.7199 27.0118 95.1386 26.7331 96.7093 26.7331C99.3946 26.7331 101.51 27.4044 103.055 28.7471C104.601 30.0898 105.373 31.9898 105.373 34.4471V46.0371H101.231L100.775 42.9971C100.218 44.0104 99.4326 44.8464 98.4193 45.5051C97.4313 46.1638 96.1519 46.4931 94.5813 46.4931ZM95.6833 42.6931C97.0766 42.6931 98.1533 42.2371 98.9133 41.3251C99.6986 40.4131 100.193 39.2858 100.395 37.9431H96.2533C94.9613 37.9431 94.0366 38.1838 93.4793 38.6651C92.9219 39.1211 92.6433 39.6911 92.6433 40.3751C92.6433 41.1098 92.9219 41.6798 93.4793 42.0851C94.0366 42.4904 94.7713 42.6931 95.6833 42.6931ZM118.153 46.0371C116.177 46.0371 114.594 45.5558 113.403 44.5931C112.212 43.6304 111.617 41.9204 111.617 39.4631V31.2551H108.387V27.1891H111.617L112.187 22.1351H116.481V27.1891H121.573V31.2551H116.481V39.5011C116.481 40.4131 116.671 41.0464 117.051 41.4011C117.456 41.7304 118.14 41.8951 119.103 41.8951H121.459V46.0371H118.153ZM132.817 46.4931C130.461 46.4931 128.637 45.7584 127.345 44.2891C126.079 42.8198 125.445 40.6664 125.445 37.8291V27.1891H130.271V37.3731C130.271 38.9944 130.601 40.2358 131.259 41.0971C131.918 41.9584 132.957 42.3891 134.375 42.3891C135.718 42.3891 136.82 41.9078 137.681 40.9451C138.568 39.9824 139.011 38.6398 139.011 36.9171V27.1891H143.875V46.0371H139.581L139.201 42.8451C138.619 43.9598 137.77 44.8464 136.655 45.5051C135.566 46.1638 134.287 46.4931 132.817 46.4931ZM148.868 46.0371V27.1891H153.2L153.656 30.7231C154.34 29.5071 155.265 28.5444 156.43 27.8351C157.621 27.1004 159.014 26.7331 160.61 26.7331V31.8631H159.242C158.178 31.8631 157.228 32.0278 156.392 32.3571C155.556 32.6864 154.898 33.2564 154.416 34.0671C153.96 34.8778 153.732 36.0051 153.732 37.4491V46.0371H148.868ZM163.935 46.0371V18.6771H168.799V46.0371H163.935ZM182.813 46.4931C180.989 46.4931 179.342 46.0751 177.873 45.2391C176.429 44.4031 175.276 43.2504 174.415 41.7811C173.579 40.2864 173.161 38.5638 173.161 36.6131C173.161 34.6624 173.591 32.9524 174.453 31.4831C175.314 29.9884 176.467 28.8231 177.911 27.9871C179.38 27.1511 181.027 26.7331 182.851 26.7331C184.649 26.7331 186.271 27.1511 187.715 27.9871C189.184 28.8231 190.337 29.9884 191.173 31.4831C192.034 32.9524 192.465 34.6624 192.465 36.6131C192.465 38.5638 192.034 40.2864 191.173 41.7811C190.337 43.2504 189.184 44.4031 187.715 45.2391C186.245 46.0751 184.611 46.4931 182.813 46.4931ZM182.813 42.2751C184.079 42.2751 185.181 41.8064 186.119 40.8691C187.056 39.9064 187.525 38.4878 187.525 36.6131C187.525 34.7384 187.056 33.3324 186.119 32.3951C185.181 31.4324 184.092 30.9511 182.851 30.9511C181.559 30.9511 180.444 31.4324 179.507 32.3951C178.595 33.3324 178.139 34.7384 178.139 36.6131C178.139 38.4878 178.595 39.9064 179.507 40.8691C180.444 41.8064 181.546 42.2751 182.813 42.2751ZM205.858 46.4931C204.034 46.4931 202.387 46.0751 200.918 45.2391C199.474 44.4031 198.321 43.2504 197.46 41.7811C196.624 40.2864 196.206 38.5638 196.206 36.6131C196.206 34.6624 196.636 32.9524 197.498 31.4831C198.359 29.9884 199.512 28.8231 200.956 27.9871C202.425 27.1511 204.072 26.7331 205.896 26.7331C207.694 26.7331 209.316 27.1511 210.76 27.9871C212.229 28.8231 213.382 29.9884 214.218 31.4831C215.079 32.9524 215.51 34.6624 215.51 36.6131C215.51 38.5638 215.079 40.2864 214.218 41.7811C213.382 43.2504 212.229 44.4031 210.76 45.2391C209.29 46.0751 207.656 46.4931 205.858 46.4931ZM205.858 42.2751C207.124 42.2751 208.226 41.8064 209.164 40.8691C210.101 39.9064 210.57 38.4878 210.57 36.6131C210.57 34.7384 210.101 33.3324 209.164 32.3951C208.226 31.4324 207.137 30.9511 205.896 30.9511C204.604 30.9511 203.489 31.4324 202.552 32.3951C201.64 33.3324 201.184 34.7384 201.184 36.6131C201.184 38.4878 201.64 39.9064 202.552 40.8691C203.489 41.8064 204.591 42.2751 205.858 42.2751ZM219.859 54.3971V27.1891H224.191L224.723 29.8871C225.331 29.0511 226.129 28.3164 227.117 27.6831C228.13 27.0498 229.435 26.7331 231.031 26.7331C232.804 26.7331 234.387 27.1638 235.781 28.0251C237.174 28.8864 238.276 30.0644 239.087 31.5591C239.897 33.0538 240.303 34.7511 240.303 36.6511C240.303 38.5511 239.897 40.2484 239.087 41.7431C238.276 43.2124 237.174 44.3778 235.781 45.2391C234.387 46.0751 232.804 46.4931 231.031 46.4931C229.612 46.4931 228.371 46.2271 227.307 45.6951C226.243 45.1631 225.381 44.4158 224.723 43.4531V54.3971H219.859ZM230.005 42.2371C231.55 42.2371 232.829 41.7178 233.843 40.6791C234.856 39.6404 235.363 38.2978 235.363 36.6511C235.363 35.0044 234.856 33.6491 233.843 32.5851C232.829 31.5211 231.55 30.9891 230.005 30.9891C228.434 30.9891 227.142 31.5211 226.129 32.5851C225.141 33.6238 224.647 34.9664 224.647 36.6131C224.647 38.2598 225.141 39.6151 226.129 40.6791C227.142 41.7178 228.434 42.2371 230.005 42.2371Z" fill="#F2F2F2"/>
</svg>
